<?xml version="1.0" standalone="no"?><!DOCTYPE svg PUBLIC "-//W3C//DTD SVG 1.1//EN" "http://www.w3.org/Graphics/SVG/1.1/DTD/svg11.dtd"><svg t="1521944266636" class="icon" style="" viewBox="0 0 1024 1024" version="1.1" xmlns="http://www.w3.org/2000/svg" p-id="698" xmlns:xlink="http://www.w3.org/1999/xlink" width="200" height="200"><defs><style type="text/css"></style></defs><path d="M716.8 122.092308c15.753846-3.938462 31.507692-3.938462 47.261538-3.938462 110.276923 0 196.923077 86.646154 196.923077 196.923077s-86.646154 196.923077-196.923077 196.923077c-35.446154 0-66.953846-7.876923-98.461538-27.569231 11.815385-7.876923 19.692308-19.692308 27.569231-27.569231 19.692308 11.815385 43.323077 15.753846 66.953846 15.753847 86.646154 0 157.538462-70.892308 157.538461-157.538462s-70.892308-157.538462-157.538461-157.538461c-7.876923 0-15.753846 0-23.630769 3.938461-3.938462-15.753846-11.815385-27.569231-19.692308-39.384615zM681.353846 590.769231c-70.892308-51.2-157.538462-78.769231-248.123077-78.769231-240.246154 0-433.230769 192.984615-433.230769 433.230769 0 27.569231 3.938462 55.138462 7.876923 78.769231h39.384615c-3.938462-23.630769-7.876923-51.2-7.876923-78.769231 0-216.615385 177.230769-393.846154 393.846154-393.846154 63.015385 0 118.153846 15.753846 173.292308 39.384616h74.830769zM886.153846 823.138462c-11.815385-11.815385-23.630769-11.815385-35.446154-11.815385l-15.753846-15.753846 23.630769-23.630769c11.815385 7.876923 27.569231 7.876923 43.323077 7.876923 51.2 0 90.584615-35.446154 90.584616-82.707693 0-7.876923 0-19.692308-3.938462-27.56923l-59.076923 55.138461-51.2-55.138461 55.138462-51.2c-11.815385-3.938462-19.692308-3.938462-31.507693-3.938462-51.2 0-90.584615 35.446154-90.584615 82.707692 0 15.753846 3.938462 27.569231 11.815385 39.384616l-23.63077 19.692307-74.830769-70.892307v-27.569231l-59.076923-35.446154-35.446154 39.384615 27.569231 59.076924 35.446154 3.938461 3.938461-3.938461 70.892308 66.953846-141.784615 122.092307s-3.938462 31.507692 7.876923 43.323077 43.323077 15.753846 43.323077 15.753846l133.907692-141.784615 11.815385 11.815385c-7.876923 15.753846-7.876923 31.507692 7.876923 47.261538l70.892307 70.892308c15.753846 15.753846 39.384615 15.753846 55.138462 0l7.876923-7.876923c15.753846-15.753846 15.753846-39.384615 0-55.138462l-78.769231-70.892307z" fill="" p-id="699"></path><path d="M437.169231 39.384615c129.969231 0 236.307692 106.338462 236.307692 236.307693s-106.338462 236.307692-236.307692 236.307692-236.307692-106.338462-236.307693-236.307692 106.338462-236.307692 236.307693-236.307693m0-39.384615c-153.6 0-275.692308 122.092308-275.692308 275.692308s122.092308 275.692308 275.692308 275.692307 275.692308-122.092308 275.692307-275.692307-122.092308-275.692308-275.692307-275.692308z" fill="" p-id="700"></path></svg>