<?xml version="1.0" standalone="no"?><!DOCTYPE svg PUBLIC "-//W3C//DTD SVG 1.1//EN" "http://www.w3.org/Graphics/SVG/1.1/DTD/svg11.dtd"><svg t="1522754765770" class="icon" style="" viewBox="0 0 1024 1024" version="1.1" xmlns="http://www.w3.org/2000/svg" p-id="1989" xmlns:xlink="http://www.w3.org/1999/xlink" width="200" height="200"><defs><style type="text/css"></style></defs><path d="M870.4 57.6C780.8 19.2 652.8 0 512 0 371.2 0 243.2 19.2 153.6 57.6 51.2 102.4 0 153.6 0 211.2l0 595.2c0 57.6 51.2 115.2 153.6 153.6C243.2 1004.8 371.2 1024 512 1024c140.8 0 268.8-19.2 358.4-57.6 96-38.4 153.6-96 153.6-153.6L1024 211.2C1024 153.6 972.8 102.4 870.4 57.6L870.4 57.6zM812.8 320C729.6 352 614.4 364.8 512 364.8 403.2 364.8 294.4 352 211.2 320 115.2 294.4 70.4 256 70.4 211.2c0-38.4 51.2-76.8 140.8-108.8C294.4 76.8 403.2 64 512 64c102.4 0 217.6 19.2 300.8 44.8 89.6 32 140.8 70.4 140.8 108.8C953.6 256 908.8 294.4 812.8 320L812.8 320zM819.2 505.6C736 531.2 620.8 550.4 512 550.4c-108.8 0-217.6-19.2-307.2-44.8C115.2 473.6 64 435.2 64 396.8L64 326.4C128 352 172.8 384 243.2 396.8 326.4 416 416 428.8 512 428.8c96 0 185.6-12.8 268.8-32C851.2 384 896 352 960 326.4l0 76.8C960 435.2 908.8 473.6 819.2 505.6L819.2 505.6zM819.2 710.4c-83.2 25.6-198.4 44.8-307.2 44.8-108.8 0-217.6-19.2-307.2-44.8C115.2 684.8 64 646.4 64 601.6L64 505.6c64 32 108.8 57.6 179.2 76.8C326.4 601.6 416 614.4 512 614.4c96 0 185.6-12.8 268.8-32C851.2 563.2 896 537.6 960 505.6l0 96C960 646.4 908.8 684.8 819.2 710.4L819.2 710.4zM512 960c-108.8 0-217.6-19.2-307.2-44.8C115.2 889.6 64 851.2 64 812.8l0-96c64 32 108.8 57.6 179.2 76.8 76.8 19.2 172.8 32 262.4 32 96 0 185.6-12.8 268.8-32 76.8-19.2 121.6-44.8 185.6-76.8l0 96c0 38.4-51.2 76.8-140.8 108.8C736 947.2 614.4 960 512 960L512 960zM512 960" p-id="1990"></path></svg>