<?xml version="1.0" standalone="no"?><!DOCTYPE svg PUBLIC "-//W3C//DTD SVG 1.1//EN" "http://www.w3.org/Graphics/SVG/1.1/DTD/svg11.dtd"><svg t="1527494398288" class="icon" style="" viewBox="0 0 1024 1024" version="1.1" xmlns="http://www.w3.org/2000/svg" p-id="1941" xmlns:xlink="http://www.w3.org/1999/xlink" width="200" height="200"><defs><style type="text/css"></style></defs><path d="M341.418667 473.656889L632.32 124.017778A28.444444 28.444444 0 0 1 654.222222 113.777778h284.444445a28.444444 28.444444 0 0 1 22.357333 46.051555l-582.144 739.555556a28.444444 28.444444 0 0 1-22.328889 10.837333H157.354667a28.444444 28.444444 0 0 1-28.444445-28.444444V170.666667H85.333333C47.416889 170.666667 47.416889 113.777778 85.333333 113.777778h227.640889a28.444444 28.444444 0 0 1 28.444445 28.444444v331.434667zM342.727111 853.333333L880.071111 170.666667H667.591111L334.791111 570.510222c-17.009778 20.48-50.289778 8.419556-50.289778-18.204444V170.666667H185.799111v682.666666h156.928z" p-id="1942"></path></svg>