<?xml version="1.0" standalone="no"?><!DOCTYPE svg PUBLIC "-//W3C//DTD SVG 1.1//EN" "http://www.w3.org/Graphics/SVG/1.1/DTD/svg11.dtd"><svg t="1521945967927" class="icon" style="" viewBox="0 0 1024 1024" version="1.1" xmlns="http://www.w3.org/2000/svg" p-id="3640" xmlns:xlink="http://www.w3.org/1999/xlink" width="200" height="200"><defs><style type="text/css"></style></defs><path d="M896 576 896 448l-64 0L576 448 576 384l192 0L768 64 320 64l0 320 192 0 0 64L256 448 192 448l0 64 0 64L0 576l0 320 384 0L384 576 256 576 256 512l576 0 0 64-192 0 0 320 384 0L1024 576 896 576zM384 320 384 128l320 0 0 192L384 320zM320 832 64 832l0-192 256 0L320 832zM960 832l-256 0 0-192 256 0L960 832z" p-id="3641"></path></svg>