<?xml version="1.0" standalone="no"?><!DOCTYPE svg PUBLIC "-//W3C//DTD SVG 1.1//EN" "http://www.w3.org/Graphics/SVG/1.1/DTD/svg11.dtd"><svg t="1522860728411" class="icon" style="" viewBox="0 0 1024 1024" version="1.1" xmlns="http://www.w3.org/2000/svg" p-id="1942" xmlns:xlink="http://www.w3.org/1999/xlink" width="200" height="200"><defs><style type="text/css"></style></defs><path d="M866.5 256 768 256c0-68.4-26.6-132.7-75-181C644.7 26.6 580.4 0 512 0c-68.4 0-132.7 26.6-181 75-48.4 48.4-75 112.6-75 181l-98.5 0c-51.7 0-93.5 41.9-93.5 93.5l0 580.9c0 51.7 41.9 93.5 93.5 93.5l708.9 0c51.7 0 93.5-41.9 93.5-93.5L959.9 349.5C960 297.9 918.1 256 866.5 256zM512 64c105.9 0 192 86.1 192 192L320 256C320 150.1 406.1 64 512 64zM768 480c0 17.6-14.4 32-32 32s-32-14.4-32-32 14.4-32 32-32S768 462.4 768 480zM320 480c0 17.6-14.4 32-32 32s-32-14.4-32-32 14.4-32 32-32S320 462.4 320 480zM896 930.5c0 16.3-13.3 29.5-29.5 29.5L157.5 960c-16.3 0-29.5-13.3-29.5-29.5L128 349.5c0-16.3 13.3-29.5 29.5-29.5L256 320l0 69.5c-37.3 13.2-64 48.7-64 90.5 0 53 43 96 96 96s96-43 96-96c0-41.8-26.7-77.4-64-90.5L320 320l384 0 0 69.5c-37.3 13.2-64 48.7-64 90.5 0 53 43 96 96 96s96-43 96-96c0-41.8-26.7-77.4-64-90.5L768 320l98.5 0c16.3 0 29.5 13.3 29.5 29.5L896 930.5z" p-id="1943"></path></svg>