<?xml version="1.0" standalone="no"?><!DOCTYPE svg PUBLIC "-//W3C//DTD SVG 1.1//EN" "http://www.w3.org/Graphics/SVG/1.1/DTD/svg11.dtd"><svg t="1527237158011" class="icon" style="" viewBox="0 0 1024 1024" version="1.1" xmlns="http://www.w3.org/2000/svg" p-id="1906" xmlns:xlink="http://www.w3.org/1999/xlink" width="200" height="200"><defs><style type="text/css"></style></defs><path d="M997.91303111 402.48433778C975.92206222 367.09489778 937.83836445 345.03111112 898.73521778 343.86602667L656.32483555 342.70094222c16.16554667-46.67619555 24.32113778-95.31847111 24.32113778-144.54328888 0-24.46677333-2.11171555-49.51608889-6.77205333-76.53148445l-4.51470222-19.51516444C656.47047111 46.18695112 607.39128889 7.01098667 549.86524445 7.01098667c-67.64771555 0-122.69795555 55.05024-122.69795556 122.77077333 0 3.93216 0.14563555 7.79150222 0.50972444 10.99548445C424.32739555 260.85376 279.78410667 384.78961778 230.63210667 384.78961778c0 0 0 0-0.07281778 0L50.48092445 384.86243556c-23.52014222 0-42.67121778 19.22389333-42.67121778 42.74403556l-0.43690667 503.89902222c0 23.88423111 20.68024889 41.28768 46.60337778 42.01585778l156.12131555-0.29127112 5.97105778 1.09226667 5.24288-0.72817778 594.19306667 0.21845333c20.89870222-1.45635555 41.06922667-7.93713778 58.54549333-19.07825777 18.93262222-12.16056889 34.22435555-29.27274667 41.14204444-44.34602667l7.28177778-12.08775111c40.92359111-97.43018667 90.87658667-395.91025778 92.91548445-408.50773333l0.80099555-12.08775112C1018.22919111 450.90816 1011.89404445 424.91221334 997.91303111 402.48433778zM80.62748445 458.04430222L177.7664 457.89866667l0 442.95054222-97.50300445 0.29127111L80.62748445 458.04430222zM857.59317333 865.67822222l-4.58752 7.28177778c-4.15061333 8.37404445-10.48576 15.43736889-18.20444444 20.38897778-7.06332445 4.51470222-15.43736889 7.20896-21.77251556 7.64586667L250.58417778 900.77639112 250.58417778 454.03932445C346.63082667 435.32515556 496.34417778 288.52451556 500.42197333 137.20917334L499.98506667 129.78176c0-27.52512 22.35505778-49.95299555 49.88017778-49.95299555 23.37450667 0 43.32657778 15.87427555 48.56945777 38.66624l4.07779556 17.33063111c3.56807111 20.89870222 5.31569778 41.79740445 5.31569777 62.18638222 0 41.36049778-6.91768889 82.21127111-20.6074311 121.31441778L553.72458667 415.37308445l331.61216 0.07281777 7.86432 0.80099556c17.62190222 0.65536 33.64181333 9.90321778 42.88967111 24.75804444 5.75260445 9.24785778 8.37404445 20.02488889 7.50023111 36.84579556C943.08124445 480.76344889 892.98261333 780.40860445 857.59317333 865.67822222z" p-id="1907"></path></svg>